<?xml version="1.0" encoding="UTF-8"?>
<svg id="Layer_1" xmlns="http://www.w3.org/2000/svg" version="1.1" viewBox="0 0 2242.58 1585.01">
  <!-- Generator: Adobe Illustrator 29.8.2, SVG Export Plug-In . SVG Version: 2.1.1 Build 3)  -->
  <defs>
    <style>
      .st0 {
        fill: #101011;
      }

      .st1 {
        fill: #231f20;
        font-family: MyriadPro-Regular, 'Myriad Pro';
        font-size: 12px;
      }

      .st2 {
        fill: #fff;
      }

      .st3 {
        fill: #febe3d;
      }
    </style>
  </defs>
  <text class="st1" transform="translate(-1523.68 -9704.64)"><tspan x="0" y="0">z</tspan></text>
  <rect class="st0" width="2242.58" height="1585.01"/>
  <path class="st3" d="M2956.28,806.28c-6.22-8.97-10.49-19.26-12.44-29.98-.17-.93-.97-1.61-1.91-1.61h-37.92c-1.17,0-2.08,1.02-1.95,2.17,2.58,21.43,10.92,41.58,24.25,58.59.72.92,2.09.99,2.91.16l26.84-26.84c.67-.67.75-1.71.21-2.49Z"/>
  <path class="st3" d="M2926.33,689.58c-13.35,17.03-21.69,37.2-24.27,58.65-.14,1.16.78,2.17,1.95,2.17h37.92c.95,0,1.74-.68,1.91-1.61,1.95-10.74,6.23-21.05,12.46-30.04.54-.78.46-1.82-.21-2.49l-26.84-26.84c-.82-.82-2.19-.75-2.91.16Z"/>
  <path class="st3" d="M3095.33,776.31c-1.96,10.73-6.24,21.03-12.47,30.02-.54.78-.46,1.82.21,2.49l26.84,26.84c.82.82,2.19.75,2.91-.16,13.35-17.02,21.7-37.18,24.28-58.63.14-1.16-.78-2.17-1.95-2.17h-37.92c-.95,0-1.74.68-1.91,1.61Z"/>
  <path class="st3" d="M3019.54,685.57c16.01,0,31.24,4.8,44.19,13.91.78.55,1.83.47,2.51-.2l26.8-26.8c.82-.82.76-2.19-.16-2.91-20.82-16.43-46.74-25.45-73.3-25.45s-52.17,8.91-72.92,25.14c-.92.72-.99,2.09-.16,2.91l26.84,26.85c.67.67,1.72.75,2.5.21,12.89-8.94,27.96-13.66,43.71-13.66Z"/>
  <path class="st3" d="M3019.54,839.49c-15.76,0-30.83-4.72-43.73-13.68-.78-.54-1.83-.46-2.5.21l-26.84,26.85c-.82.82-.75,2.2.16,2.91,20.76,16.24,46.55,25.16,72.94,25.16s52.15-8.9,72.9-25.12c.92-.72.99-2.09.16-2.92l-26.85-26.86c-.67-.67-1.72-.75-2.5-.21-12.9,8.94-27.98,13.65-43.75,13.65Z"/>
  <path class="st3" d="M3017.57,772.74v-20.38c0-1.08.87-1.95,1.95-1.95h115.64c1.17,0,2.08-1.02,1.95-2.17-2.56-21.29-10.8-41.33-23.96-58.27-.72-.92-2.09-1-2.92-.17l-38.76,38.76-4.18,4.21c-.76.76-1.98.77-2.75.02-2.55-2.49-7.72-7.55-7.78-7.62-9.95-9.88-23.17-15.32-37.2-15.32h-.42c-23.21.09-43.78,15.36-50.03,37.11-5.47,19.05-.66,38.65,12.87,52.44,10,10.19,23.35,15.8,37.58,15.8,23.39,0,44.19-15.8,50.66-38,.37-1.25-.57-2.52-1.88-2.52h-48.8c-1.08,0-1.95-.87-1.95-1.95Z"/>
  <path class="st0" d="M3290.53,781.72h37.19c-4.79,19.46-21.74,31.05-45.45,31.05-15.57,0-28.41-4.84-38.16-14.38-9.54-9.54-14.38-21.75-14.38-36.29s4.84-26.76,14.39-36.51c9.48-9.68,21.82-14.58,36.7-14.58s28.19,5.75,36.75,15.42c3.39,3.83,9.07,4.64,13.51,2.1l3.03-1.74c5.98-3.43,7.34-11.47,2.81-16.66-2.29-2.62-5-5.38-8-7.82-13.08-10.63-30.16-16.48-48.09-16.48-21.68,0-40.15,7.47-54.89,22.21-14.6,14.6-22.01,32.73-22.01,53.86s7.41,39.47,22.01,54.07c14.81,14.6,33.7,22.01,56.13,22.01s38.9-6.43,51.99-19.1c13.24-12.82,19.95-29.48,19.95-49.53h0c0-6.04-4.9-10.94-10.94-10.94h-52.53c-6.04,0-10.94,4.9-10.94,10.94v1.45c0,6.04,4.9,10.94,10.94,10.94Z"/>
  <rect class="st0" x="3370.01" y="688.34" width="24.36" height="146.94" rx="12.18" ry="12.18"/>
  <path class="st0" d="M3462.29,727.17c-15.51,0-28.76,5.39-39.38,16.01-10.76,10.76-16.22,24.01-16.22,39.39s5.46,28.62,16.22,39.38c10.63,10.62,23.88,16.01,39.38,16.01s28.61-5.24,39.38-16.01c10.76-10.76,16.22-24.01,16.22-39.38s-5.46-28.62-16.22-39.39c-10.77-10.77-23.66-16.01-39.38-16.01ZM3493.53,782.57c0,9.05-3.03,16.67-9.01,22.65-5.97,5.98-13.46,9.01-22.23,9.01s-16.26-3.03-22.23-9.01c-5.98-5.98-9.01-13.59-9.01-22.64s3.03-16.67,9.01-22.65c5.98-5.98,13.46-9.01,22.23-9.01s16.26,3.03,22.23,9.01c5.98,5.98,9.01,13.6,9.01,22.65Z"/>
  <rect class="st0" x="3999.49" y="729.66" width="24.36" height="105.42" rx="12.18" ry="12.18"/>
  <path class="st0" d="M4011.67,689.61c-4.11,0-7.97,1.65-10.85,4.64-6.02,6.01-6.02,15.25.01,21.5,3.01,2.9,6.85,4.5,10.81,4.5s7.76-1.6,10.67-4.51c2.99-2.99,4.65-6.82,4.69-10.79.04-3.97-1.55-7.77-4.48-10.69-2.89-3-6.75-4.65-10.86-4.65Z"/>
  <path class="st0" d="M4096.51,726.97c-13.54,0-23.97,4.63-31.04,13.75h0c0-6.11-4.95-11.06-11.06-11.06h-2.24c-6.11,0-11.06,4.95-11.06,11.06v83.29c0,6.11,4.95,11.06,11.06,11.06h2.24c6.11,0,11.06-4.95,11.06-11.06v-45.37c0-18.28,9.2-28.76,25.24-28.76,14.07,0,22.14,8.37,22.14,22.97v51.16c0,6.11,4.95,11.06,11.06,11.06h2.24c6.11,0,11.06-4.95,11.06-11.06v-53.43c0-26.49-15.98-43.61-40.71-43.61Z"/>
  <path class="st0" d="M3590.47,727.21c-14.81,0-26.64,5.19-35.17,15.44v-42.09c0-6.73-5.45-12.18-12.18-12.18h0c-6.73,0-12.18,5.45-12.18,12.18v122.58c0,6.73,5.45,12.18,12.18,12.18h0c6.73,0,12.18-5.45,12.18-12.18v-.73c8.56,10.49,20.07,15.6,35.17,15.6s26.76-5.24,37.12-16.03c10.2-10.62,15.38-23.86,15.38-39.37s-5.03-28.6-15.38-39.37c-10.36-10.78-22.51-16.03-37.12-16.03ZM3618.61,782.61c0,9.25-2.95,16.8-9.01,23.06-5.98,5.98-13.6,9.01-22.65,9.01s-16.67-3.03-22.64-9c-6.07-6.27-9.02-13.82-9.02-23.07s3.03-16.88,9.02-22.87c5.91-6.1,13.53-9.2,22.64-9.2s16.73,3.1,22.65,9.21c5.98,5.98,9.01,13.67,9.01,22.86Z"/>
  <path class="st0" d="M3910.72,688.14h-1.03c-6.84,0-12.39,5.55-12.39,12.39v122.16c0,6.84,5.55,12.39,12.39,12.39h62.16c6.84,0,12.39-5.55,12.39-12.39h0c0-6.84-5.55-12.39-12.39-12.39h-48.74v-109.77c0-6.84-5.55-12.39-12.39-12.39Z"/>
  <path class="st0" d="M4206.75,781.33l29.19-33.34c6.26-7.15,1.18-18.34-8.32-18.34h-.53c-3.24,0-6.32,1.42-8.42,3.9l-31.78,37.38h-7.62v-65.62c0-6.73-5.45-12.18-12.18-12.18h0c-6.73,0-12.18,5.45-12.18,12.18v118.69c0,6.11,4.95,11.06,11.06,11.06h2.24c6.11,0,11.06-4.95,11.06-11.06v-31.94h7.97l33.71,39.16c2.1,2.44,5.16,3.84,8.38,3.84h0c9.49,0,14.57-11.17,8.33-18.32l-30.91-35.42Z"/>
  <path class="st0" d="M3709.87,726.97c-16.34,0-29.8,5.39-40.01,16.02-10.34,10.56-15.59,23.81-15.59,39.38s5.32,29.31,15.81,39.8c10.43,10.43,24.3,16,39.55,16,2.06,0,4.15-.1,6.26-.31,11.94-1.16,23.24-5.72,31.87-12.55,5.71-4.52,5.12-13.36-1.14-17.08l-1.94-1.15c-3.81-2.26-8.59-1.78-12.01,1.03-7.37,6.04-18.1,8.65-28.67,6.6-12.27-2.38-21.24-10.53-24.08-21.82h72.49c5.66,0,10.35-4.54,10.38-10.21,0-.04,0-.08,0-.11,0-15.35-5.03-28.59-14.95-39.35-9.93-10.78-22.71-16.25-37.96-16.25ZM3709.66,749.26c14.59,0,25.16,8.74,28.33,23.41h-58.3c3.38-14.67,14.55-23.41,29.97-23.41Z"/>
  <path class="st0" d="M3830.13,726.97c-16.34,0-29.8,5.39-40.01,16.02-10.34,10.56-15.59,23.81-15.59,39.38s5.32,29.31,15.81,39.8c10.43,10.43,24.3,16,39.55,16,2.06,0,4.15-.1,6.26-.31,11.94-1.16,23.24-5.72,31.87-12.55,5.71-4.52,5.12-13.36-1.14-17.08l-1.94-1.15c-3.81-2.26-8.59-1.78-12.01,1.03-7.37,6.04-18.1,8.65-28.67,6.6-12.27-2.38-21.24-10.53-24.08-21.82h72.49c5.66,0,10.35-4.54,10.38-10.21,0-.04,0-.08,0-.11,0-15.35-5.03-28.59-14.95-39.35-9.93-10.78-22.71-16.25-37.96-16.25ZM3829.92,749.26c14.59,0,25.16,8.74,28.33,23.41h-58.3c3.38-14.67,14.55-23.41,29.97-23.41Z"/>
  <path class="st3" d="M501.05,836.26c-6.22-8.97-10.49-19.26-12.44-29.98-.17-.93-.97-1.61-1.91-1.61h-37.92c-1.17,0-2.08,1.02-1.95,2.17,2.58,21.43,10.92,41.58,24.25,58.59.72.92,2.09.99,2.91.16l26.84-26.84c.67-.67.75-1.71.21-2.49Z"/>
  <path class="st3" d="M471.1,719.55c-13.35,17.03-21.69,37.2-24.27,58.65-.14,1.16.78,2.17,1.95,2.17h37.92c.95,0,1.74-.68,1.91-1.61,1.95-10.74,6.23-21.05,12.46-30.04.54-.78.46-1.82-.21-2.49l-26.84-26.84c-.82-.82-2.19-.75-2.91.16Z"/>
  <path class="st3" d="M640.1,806.28c-1.96,10.73-6.24,21.03-12.47,30.02-.54.78-.46,1.82.21,2.49l26.84,26.84c.82.82,2.19.75,2.91-.16,13.35-17.02,21.7-37.18,24.28-58.63.14-1.16-.78-2.17-1.95-2.17h-37.92c-.95,0-1.74.68-1.91,1.61Z"/>
  <path class="st3" d="M564.31,715.54c16.01,0,31.24,4.8,44.19,13.91.78.55,1.83.47,2.51-.2l26.8-26.8c.82-.82.76-2.19-.16-2.91-20.82-16.43-46.74-25.45-73.3-25.45s-52.17,8.91-72.92,25.14c-.92.72-.99,2.09-.16,2.91l26.84,26.85c.67.67,1.72.75,2.5.21,12.89-8.94,27.96-13.66,43.71-13.66Z"/>
  <path class="st3" d="M564.31,869.47c-15.76,0-30.83-4.72-43.73-13.68-.78-.54-1.83-.46-2.5.21l-26.84,26.85c-.82.82-.75,2.2.16,2.91,20.76,16.24,46.55,25.16,72.94,25.16s52.15-8.9,72.9-25.12c.92-.72.99-2.09.16-2.92l-26.85-26.86c-.67-.67-1.72-.75-2.5-.21-12.9,8.94-27.98,13.65-43.75,13.65Z"/>
  <path class="st3" d="M562.34,802.71v-20.38c0-1.08.87-1.95,1.95-1.95h115.64c1.17,0,2.08-1.02,1.95-2.17-2.56-21.29-10.8-41.33-23.96-58.27-.72-.92-2.09-1-2.92-.17l-38.76,38.76-4.18,4.21c-.76.76-1.98.77-2.75.02-2.55-2.49-7.72-7.55-7.78-7.62-9.95-9.88-23.17-15.32-37.2-15.32h-.42c-23.21.09-43.78,15.36-50.03,37.11-5.47,19.05-.66,38.65,12.87,52.44,10,10.19,23.35,15.8,37.58,15.8,23.39,0,44.19-15.8,50.66-38,.37-1.25-.57-2.52-1.88-2.52h-48.8c-1.08,0-1.95-.87-1.95-1.95Z"/>
  <path class="st2" d="M835.3,811.69h37.19c-4.79,19.46-21.74,31.05-45.45,31.05-15.57,0-28.41-4.84-38.16-14.38-9.54-9.54-14.38-21.75-14.38-36.29s4.84-26.76,14.39-36.51c9.48-9.68,21.82-14.58,36.7-14.58s28.19,5.75,36.75,15.42c3.39,3.83,9.07,4.64,13.51,2.1l3.03-1.74c5.98-3.43,7.34-11.47,2.81-16.66-2.29-2.62-5-5.38-8-7.82-13.08-10.63-30.16-16.48-48.09-16.48-21.68,0-40.15,7.47-54.89,22.21-14.6,14.6-22.01,32.73-22.01,53.86s7.41,39.47,22.01,54.07c14.81,14.6,33.7,22.01,56.13,22.01s38.9-6.43,51.99-19.1c13.24-12.82,19.95-29.48,19.95-49.53h0c0-6.04-4.9-10.94-10.94-10.94h-52.53c-6.04,0-10.94,4.9-10.94,10.94v1.45c0,6.04,4.9,10.94,10.94,10.94Z"/>
  <rect class="st2" x="914.78" y="718.31" width="24.36" height="146.94" rx="12.18" ry="12.18"/>
  <path class="st2" d="M1007.06,757.14c-15.51,0-28.76,5.39-39.38,16.01-10.76,10.76-16.22,24.01-16.22,39.39s5.46,28.62,16.22,39.38c10.63,10.62,23.88,16.01,39.38,16.01s28.61-5.24,39.38-16.01c10.76-10.76,16.22-24.01,16.22-39.38s-5.46-28.62-16.22-39.39c-10.77-10.77-23.66-16.01-39.38-16.01ZM1038.3,812.54c0,9.05-3.03,16.67-9.01,22.65-5.97,5.98-13.46,9.01-22.23,9.01s-16.26-3.03-22.23-9.01c-5.98-5.98-9.01-13.59-9.01-22.64s3.03-16.67,9.01-22.65c5.98-5.98,13.46-9.01,22.23-9.01s16.26,3.03,22.23,9.01c5.98,5.98,9.01,13.6,9.01,22.65Z"/>
  <rect class="st2" x="1544.26" y="759.63" width="24.36" height="105.42" rx="12.18" ry="12.18"/>
  <path class="st2" d="M1556.44,719.58c-4.11,0-7.97,1.65-10.85,4.64-6.02,6.01-6.02,15.25.01,21.5,3.01,2.9,6.85,4.5,10.81,4.5s7.76-1.6,10.67-4.51c2.99-2.99,4.65-6.82,4.69-10.79.04-3.97-1.55-7.77-4.48-10.69-2.89-3-6.75-4.65-10.86-4.65Z"/>
  <path class="st2" d="M1641.28,756.94c-13.54,0-23.97,4.63-31.04,13.75h0c0-6.11-4.95-11.06-11.06-11.06h-2.24c-6.11,0-11.06,4.95-11.06,11.06v83.29c0,6.11,4.95,11.06,11.06,11.06h2.24c6.11,0,11.06-4.95,11.06-11.06v-45.37c0-18.28,9.2-28.76,25.24-28.76,14.07,0,22.14,8.37,22.14,22.97v51.16c0,6.11,4.95,11.06,11.06,11.06h2.24c6.11,0,11.06-4.95,11.06-11.06v-53.43c0-26.49-15.98-43.61-40.71-43.61Z"/>
  <path class="st2" d="M1135.24,757.18c-14.81,0-26.64,5.19-35.17,15.44v-42.09c0-6.73-5.45-12.18-12.18-12.18h0c-6.73,0-12.18,5.45-12.18,12.18v122.58c0,6.73,5.45,12.18,12.18,12.18h0c6.73,0,12.18-5.45,12.18-12.18v-.73c8.56,10.49,20.07,15.6,35.17,15.6s26.76-5.24,37.12-16.03c10.2-10.62,15.38-23.86,15.38-39.37s-5.03-28.6-15.38-39.37c-10.36-10.78-22.51-16.03-37.12-16.03ZM1163.38,812.58c0,9.25-2.95,16.8-9.01,23.06-5.98,5.98-13.6,9.01-22.65,9.01s-16.67-3.03-22.64-9c-6.07-6.27-9.02-13.82-9.02-23.07s3.03-16.88,9.02-22.87c5.91-6.1,13.53-9.2,22.64-9.2s16.73,3.1,22.65,9.21c5.98,5.98,9.01,13.67,9.01,22.86Z"/>
  <path class="st2" d="M1455.49,718.11h-1.03c-6.84,0-12.39,5.55-12.39,12.39v122.16c0,6.84,5.55,12.39,12.39,12.39h62.16c6.84,0,12.39-5.55,12.39-12.39h0c0-6.84-5.55-12.39-12.39-12.39h-48.74v-109.77c0-6.84-5.55-12.39-12.39-12.39Z"/>
  <path class="st2" d="M1751.52,811.3l29.19-33.34c6.26-7.15,1.18-18.34-8.32-18.34h-.53c-3.24,0-6.32,1.42-8.42,3.9l-31.78,37.38h-7.62v-65.62c0-6.73-5.45-12.18-12.18-12.18h0c-6.73,0-12.18,5.45-12.18,12.18v118.69c0,6.11,4.95,11.06,11.06,11.06h2.24c6.11,0,11.06-4.95,11.06-11.06v-31.94h7.97l33.71,39.16c2.1,2.44,5.16,3.84,8.38,3.84h0c9.49,0,14.57-11.17,8.33-18.32l-30.91-35.42Z"/>
  <path class="st2" d="M1254.64,756.94c-16.34,0-29.8,5.39-40.01,16.02-10.34,10.56-15.59,23.81-15.59,39.38s5.32,29.31,15.81,39.8c10.43,10.43,24.3,16,39.55,16,2.06,0,4.15-.1,6.26-.31,11.94-1.16,23.24-5.72,31.87-12.55,5.71-4.52,5.12-13.36-1.14-17.08l-1.94-1.15c-3.81-2.26-8.59-1.78-12.01,1.03-7.37,6.04-18.1,8.65-28.67,6.6-12.27-2.38-21.24-10.53-24.08-21.82h72.49c5.66,0,10.35-4.54,10.38-10.21,0-.04,0-.08,0-.11,0-15.35-5.03-28.59-14.95-39.35-9.93-10.78-22.71-16.25-37.96-16.25ZM1254.43,779.23c14.59,0,25.16,8.74,28.33,23.41h-58.3c3.38-14.67,14.55-23.41,29.97-23.41Z"/>
  <path class="st2" d="M1374.9,756.94c-16.34,0-29.8,5.39-40.01,16.02-10.34,10.56-15.59,23.81-15.59,39.38s5.32,29.31,15.81,39.8c10.43,10.43,24.3,16,39.55,16,2.06,0,4.15-.1,6.26-.31,11.94-1.16,23.24-5.72,31.87-12.55,5.71-4.52,5.12-13.36-1.14-17.08l-1.94-1.15c-3.81-2.26-8.59-1.78-12.01,1.03-7.37,6.04-18.1,8.65-28.67,6.6-12.27-2.38-21.24-10.53-24.08-21.82h72.49c5.66,0,10.35-4.54,10.38-10.21,0-.04,0-.08,0-.11,0-15.35-5.03-28.59-14.95-39.35-9.93-10.78-22.71-16.25-37.96-16.25ZM1374.69,779.23c14.59,0,25.16,8.74,28.33,23.41h-58.3c3.38-14.67,14.55-23.41,29.97-23.41Z"/>
</svg>